<svg xmlns="http://www.w3.org/2000/svg">
	<symbol id="album" viewBox="0 0 16 16">
		<path
			d="M 14.927187,0.63202008 H 2.9688079 c -0.3700009,0 -0.7066285,0.15159774 -0.9508718,0.39583042 C 1.7737141,1.2720938 1.6221163,1.6086894 1.6221163,1.9787224 V 14.021301 c 0,0.370028 0.1515978,0.706642 0.3958198,0.950883 0.2442433,0.244214 0.5808602,0.395814 0.9508718,0.395814 H 14.927187 c 0.06517,0 0.124693,-0.02688 0.168027,-0.07021 0.04331,-0.04331 0.07021,-0.102827 0.07021,-0.168001 V 0.87025538 c 0,-0.0651735 -0.02691,-0.124683 -0.07021,-0.16800312 -0.04333,-0.0433281 -0.102854,-0.0702215 -0.168027,-0.0702215 z M 2.9688079,1.0542375e-5 H 14.927187 c 0.239654,0 0.457307,0.09782170762 0.614855,0.255386657625 0.157573,0.15756629 0.255387,0.37520954 0.255387,0.61484751 V 15.129784 c 0,0.239628 -0.09781,0.457281 -0.255387,0.614829 C 15.384494,15.902186 15.166841,16 14.927187,16 H 2.9688079 C 2.4243532,16 1.9295812,15.777466 1.5711029,15.419012 1.2126326,15.060531 0.99010665,14.565783 0.99010665,14.021301 V 1.9787117 c 0,-0.5444761 0.22253655,-1.0392268 0.58099625,-1.39771576 C 1.9295812,0.22252645 2.4243532,0 2.9688079,0 Z"
			fill="#f5320e"
			id="path2"
			style="stroke-width:1" />
		<path
			d="m 2.7169139,3.1216721 c 0,0.1745071 -0.1414883,0.3160275 -0.3160141,0.3160275 -0.1745178,0 -0.3160062,-0.1414937 -0.3160062,-0.3160275 0,-0.1050136 -0.020261,-0.4625292 -0.2287366,-0.6950392 C 1.7481327,2.3061553 1.5767242,2.2165977 1.3061048,2.2165977 c -0.1996192,0 -0.35107025,0.065131 -0.45730253,0.1643018 -0.12923768,0.1206136 -0.20012587,0.2943447 -0.21435791,0.4663719 -0.001613,0.0196 -0.002435,0.04048 -0.002435,0.062533 0,0.1575471 0.0492001,0.3076808 0.14602172,0.4202144 0.0954589,0.1109603 0.24362202,0.1890139 0.44464122,0.2056806 0.025544,0.00211 0.053355,0.00317 0.083432,0.00317 0.1745045,0 0.3160035,0.1414937 0.3160035,0.3160275 0,0.1745072 -0.1414883,0.3160009 -0.3160035,0.3160009 -0.044891,0 -0.090032,-0.00192 -0.1352803,-0.00565 C 0.79103945,4.1338082 0.498788,3.9719944 0.29909413,3.7398604 0.1007736,3.5093531 0,3.213219 0,2.9098315 0,2.8731114 0.0016446,2.8349247 0.00491271,2.7954312 0.03107875,2.4792491 0.16791752,2.1538402 0.41923579,1.9192422 0.63564703,1.7172417 0.93114649,1.5845987 1.3061155,1.5845987 c 0.4791239,0 0.8018981,0.1800724 1.0191201,0.4223558 0.3569849,0.3981397 0.3916783,0.9529038 0.3916783,1.1147443 z"
			fill="#f5320e"
			id="path4"
			style="stroke-width:1" />
		<path
			d="m 2.7169139,7.065576 c 0,0.1745071 -0.1414883,0.3160008 -0.3160141,0.3160008 -0.1745178,0 -0.3160062,-0.141467 -0.3160062,-0.3160008 0,-0.1050136 -0.020261,-0.4625346 -0.2287366,-0.6950419 C 1.7481327,6.2500538 1.5767242,6.1605069 1.3061048,6.1605069 c -0.1996192,0 -0.35107025,0.06512 -0.45730253,0.1642938 -0.12923768,0.1206136 -0.20012587,0.2943474 -0.21435791,0.4663746 -0.001613,0.0196 -0.002435,0.04048 -0.002435,0.062534 0,0.157547 0.0492001,0.3076808 0.14602172,0.4202144 0.0954589,0.1109603 0.24362202,0.1890139 0.44464122,0.2056539 0.025544,0.00213 0.053355,0.0032 0.083432,0.0032 0.1745045,0 0.3160035,0.1414937 0.3160035,0.3160275 0,0.1745072 -0.1414883,0.3160009 -0.3160035,0.3160009 -0.044891,0 -0.090032,-0.00192 -0.1352803,-0.00565 C 0.79103945,8.077712 0.498788,7.9158716 0.29909413,7.6837643 0.1007736,7.453257 0,7.1571229 0,6.8537354 0,6.8169887 0.00165514,6.7788019 0.00491271,6.7393351 0.03107875,6.4231476 0.16791752,6.0977334 0.41923579,5.8631461 0.63564703,5.6611456 0.93114649,5.5285052 1.3061155,5.5285052 c 0.4791239,0 0.8018981,0.1800538 1.0191201,0.4223478 0.3569849,0.3981344 0.3916783,0.9529092 0.3916783,1.1147497 z"
			fill="#f5320e"
			id="path6"
			style="stroke-width:1" />
		<path
			d="m 2.7169139,11.00948 c 0,0.174507 -0.1414883,0.316001 -0.3160141,0.316001 -0.1745178,0 -0.3160062,-0.141467 -0.3160062,-0.316001 0,-0.105014 -0.020261,-0.462535 -0.2287366,-0.695042 -0.1080243,-0.12048 -0.2794328,-0.210054 -0.5500522,-0.210054 -0.1996298,0 -0.35107025,0.06515 -0.4573132,0.164321 -0.12922701,0.120587 -0.2001152,0.29432 -0.21434724,0.466347 -0.001613,0.0196 -0.002435,0.04051 -0.002435,0.06256 0,0.15752 0.0492001,0.30768 0.14602172,0.420214 0.0954589,0.11096 0.24362202,0.189014 0.44464122,0.205654 0.025544,0.0021 0.053355,0.0032 0.083432,0.0032 0.1745045,0 0.3160035,0.141494 0.3160035,0.316001 0,0.174507 -0.1414883,0.316027 -0.3160035,0.316027 -0.044891,0 -0.090032,-0.0019 -0.1352803,-0.0057 C 0.79103945,12.021589 0.498788,11.859775 0.29909413,11.627668 0.1007736,11.397161 0,11.101 0,10.797639 0,10.760893 0.00165514,10.722706 0.00491271,10.683239 0.03107875,10.367051 0.16790685,10.041637 0.41923579,9.80705 0.63564703,9.6050495 0.93114649,9.4724091 1.3061155,9.4724091 c 0.4791239,0 0.8018981,0.1800538 1.0191201,0.4223478 0.3569849,0.3981341 0.3916783,0.9528821 0.3916783,1.1147231 z"
			fill="#f5320e"
			id="path8"
			style="stroke-width:1" />
		<path
			d="M 15.165321,13.323886 H 2.7931808 c -0.2132912,0 -0.4093798,0.06309 -0.5688949,0.175654 -0.1595257,0.11256 -0.2845154,0.275654 -0.3556329,0.475574 -0.071635,0.201388 -0.077885,0.407788 -0.025144,0.596402 0.052555,0.187894 0.1644405,0.360321 0.3292782,0.494588 0.1172004,0.09547 0.2520994,0.172054 0.3996784,0.224694 0.1400751,0.04997 0.2911155,0.0772 0.4486092,0.0772 H 15.165321 V 13.323859 Z M 2.7931808,12.691858 H 15.797322 V 16 H 3.0210747 C 2.7899808,16 2.5674389,15.95971 2.3601556,15.885786 2.1472217,15.809813 1.9497545,15.697012 1.7753114,15.554932 1.506812,15.336238 1.3235555,15.051784 1.23619,14.739383 1.1490164,14.427756 1.1580084,14.090475 1.2736781,13.765274 1.3898864,13.438606 1.5964629,13.170472 1.8613783,12.983565 2.126275,12.796631 2.4475612,12.691858 2.7931808,12.691858 Z"
			fill="#f5320e"
			id="path10"
			style="stroke-width:1" />
		<path
			d="m 15.481401,14.029915 c 0.174508,0 0.316001,0.141493 0.316001,0.316 0,0.174534 -0.141467,0.316028 -0.316001,0.316028 H 4.4121185 c -0.1745072,0 -0.3160009,-0.141494 -0.3160009,-0.316028 0,-0.174507 0.1414671,-0.316 0.3160009,-0.316 z"
			fill="#f5320e"
			id="path12"
			style="stroke-width:1" />
		<path
			d="m 2.9303278,14.661943 c -0.1745071,0 -0.3159981,-0.141494 -0.3159981,-0.316028 0,-0.174507 0.141491,-0.316 0.3159981,-0.316 h 0.012427 c 0.1745072,0 0.3160276,0.141493 0.3160276,0.316 0,0.174534 -0.1414938,0.316028 -0.3160276,0.316028 z"
			fill="#f5320e"
			id="path14"
			style="stroke-width:1" />
		<path
			d="M 11.592218,11.297107 H 5.0666802 V 1.969301 h 6.8415388 v 9.327806 z M 5.6986819,10.665106 H 11.276217 V 2.6013001 H 5.6986819 Z"
			fill="#f5320e"
			id="path16"
			style="stroke-width:1" />
		<path
			d="M 7.7684741,2.2852939 V 10.981106 H 7.1364724 V 2.2852939 Z"
			fill="#f5320e"
			id="path18"
			style="stroke-width:1" />
		<path
			d="M 9.8382663,2.2852939 V 10.981106 H 9.2062646 V 2.2852939 Z"
			fill="#f5320e"
			id="path20"
			style="stroke-width:1" />
		<path
			d="M 5.613615,2.0618879 7.6758339,4.1240748 V 4.5709293 L 5.6059617,6.6407749 5.1591338,6.193947 7.0055654,4.3475154 5.1667605,2.5087211 Z"
			fill="#f5320e"
			id="path22"
			style="stroke-width:1" />
		<path
			d="M 7.2213527,11.20452 5.1591338,9.1423282 V 8.6954737 L 7.2289793,6.6256281 7.6758339,7.0724827 5.8294023,8.9189143 7.6681805,10.757693 Z"
			fill="#f5320e"
			id="path24"
			style="stroke-width:1" />
		<path
			d="M 9.7379994,2.5087211 7.8991945,4.3475154 9.7456261,6.193947 9.2987982,6.6407749 7.228926,4.5709293 V 4.1240748 L 9.2911449,2.0618879 Z"
			fill="#f5320e"
			id="path26"
			style="stroke-width:1" />
		<path
			d="M 7.2368194,10.757693 9.0756243,8.9189143 7.2291927,7.0724827 7.6760205,6.6256281 9.7458927,8.6954737 V 9.1423282 L 7.6836739,11.20452 Z"
			fill="#f5320e"
			id="path28"
			style="stroke-width:1" />
		<path
			d="M 9.7534661,2.0618879 11.815685,4.1240748 V 4.5709293 L 9.7458127,6.6407749 9.2989849,6.193947 11.145416,4.3475154 9.3066382,2.5087211 Z"
			fill="#f5320e"
			id="path30"
			style="stroke-width:1" />
		<path
			d="M 11.361204,11.20452 9.2989849,9.1423282 V 8.6954737 L 11.36883,6.6256281 11.815685,7.0724827 9.9692533,8.9189143 11.808058,10.757693 Z"
			fill="#f5320e"
			id="path32"
			style="stroke-width:1" />
	</symbol>
	<symbol id="chart" viewBox="0 0 16 16">
		<path d="M 4.2790698,0 C 1.9181194,0 0,1.9181194 0,4.2790698 V 11.72093 C 0,14.081881 1.9181194,16 4.2790698,16 H 11.72093 C 14.081881,16 16,14.081881 16,11.72093 V 4.2790698 C 16,1.9181194 14.081881,0 11.72093,0 Z m 0,1.1162791 H 11.72093 c 1.761841,0 3.162791,1.4009504 3.162791,3.1627907 V 11.72093 c 0,1.761841 -1.40095,3.162791 -3.162791,3.162791 H 4.2790698 c -1.7618403,0 -3.1627907,-1.40095 -3.1627907,-3.162791 V 4.2790698 c 0,-1.7618403 1.4009504,-3.1627907 3.1627907,-3.1627907 z"></path>
		<path d="M 5.0232558,6.9985466 A 0.55813954,0.55813954 0 0 0 4.4651163,7.5566862 V 8.7441861 A 0.55813954,0.55813954 0 0 0 5.0232558,9.3023256 0.55813954,0.55813954 0 0 0 5.5813954,8.7441861 V 7.5566862 A 0.55813954,0.55813954 0 0 0 5.0232558,6.9985466 Z"></path>
		<path d="M 8,4.9738373 A 0.55813954,0.55813954 0 0 0 7.4418605,5.5319768 V 9.4883721 A 0.55813954,0.55813954 0 0 0 8,10.046512 0.55813954,0.55813954 0 0 0 8.5581396,9.4883721 V 5.5319768 A 0.55813954,0.55813954 0 0 0 8,4.9738373 Z"></path>
		<path d="m 10.976744,6.1598838 a 0.55813954,0.55813954 0 0 0 -0.558139,0.5581395 v 2.7703488 a 0.55813954,0.55813954 0 0 0 0.558139,0.5581399 0.55813954,0.55813954 0 0 0 0.55814,-0.5581399 V 6.7180233 a 0.55813954,0.55813954 0 0 0 -0.55814,-0.5581395 z"></path>
	</symbol>
	<symbol id="cross" viewBox="0 0 16 16">
		<path d="M 16.000001,1.4000001 14.6,0 8.0000003,6.6000002 1.4000001,0 0,1.4000001 6.6000002,8.0000003 0,14.6 1.4000001,16.000001 8.0000003,9.4000003 14.6,16.000001 16.000001,14.6 9.4000003,8.0000003 Z"></path>
	</symbol>
	<symbol id="heart" viewBox="0 0 16 16">
		<path d="m 4.784197,0.88650756 c -1.2315124,-1.5e-7 -2.4632545,0.48926724 -3.3916327,1.46767314 -1.8567549,1.9568203 -1.85674978,5.1068807 0,7.0637219 l 4.5832089,4.8302424 c 1.0948667,1.153793 2.9536061,1.153801 4.0484528,0 l 4.583208,-4.8302424 c 1.856746,-1.9568357 1.856763,-5.1069019 0,-7.0637219 C 12.801953,0.45140563 9.8688061,0.43443859 7.9999995,2.2321168 7.0921386,1.3588057 5.9476897,0.88650769 4.784197,0.88650756 Z m 0,1.09566884 c 0.9303737,1e-7 1.8596947,0.380771 2.5807793,1.1407162 0.339538,0.3577378 0.9305085,0.3577378 1.2700464,0 1.4421753,-1.5198895 3.7208363,-1.5198907 5.1630123,0 1.442171,1.5198873 1.442188,4.0063665 0,5.5262981 L 9.2148256,13.479434 c -0.6654769,0.701311 -1.7641506,0.701319 -2.4296525,0 L 2.2019642,8.6491907 c -1.44218262,-1.5199261 -1.44217892,-4.0063963 0,-5.5262981 C 2.923053,2.3629463 3.8538233,1.9821764 4.784197,1.9821764 Z"></path>
	</symbol>
	<symbol id="chart" viewBox="0 0 16 16">
	</symbol>
	<symbol id="phone-call" viewBox="0 0 16 16">
		<path d="M 3.6634246,0.07545344 C 3.0222355,0.06582405 2.3828557,0.29848262 1.8992634,0.78207502 L 0.84810398,1.8332342 C -0.20261134,2.8839555 -0.1578866,4.5852523 0.48921046,6.3489127 1.1363076,8.1125731 2.4205535,10.052412 4.1977772,11.829616 c 1.7772142,1.777243 3.7170407,3.059874 5.4807032,3.706971 1.7636636,0.647097 3.4633346,0.693397 4.5140846,-0.357298 l 1.051159,-1.05116 c 0.967164,-0.967165 0.932774,-2.560456 -0.04306,-3.536298 L 13.573675,8.964848 C 12.59785,7.9890221 11.004559,7.9545998 10.037378,8.9217843 L 9.8108755,9.1466907 C 9.6379779,9.3195887 9.3729727,9.3415527 9.1696523,9.1738047 8.7568962,8.8331571 8.3486155,8.4676396 7.9541964,8.0731968 7.5597324,7.6787172 7.1941697,7.2688906 6.8535895,6.856149 6.685854,6.6528791 6.7061877,6.3878489 6.8791109,6.2149258 L 7.1056125,5.9900192 C 8.0728032,5.0228397 8.0383702,3.4295357 7.0625453,2.4537214 L 5.4355612,0.82514212 C 4.9476514,0.33723232 4.3046137,0.08508277 3.6634246,0.07545344 Z M 3.6522586,1.2925014 c 0.3251726,0.00587 0.6543446,0.1375377 0.9155773,0.3987705 l 1.6285793,1.6285792 c 0.5224602,0.5224545 0.5268436,1.3202674 0.043067,1.8040383 L 6.0129811,5.348796 c -0.6104712,0.6104712 -0.665449,1.6085033 -0.1052755,2.2873484 0.3615542,0.4381598 0.752497,0.8768962 1.1787659,1.3031822 0.4262978,0.4263231 0.8651162,0.8172291 1.3031823,1.1787654 0.6788598,0.560081 1.6768852,0.505189 2.2873482,-0.105276 l 0.226502,-0.2249053 c 0.483737,-0.483736 1.28158,-0.479392 1.804039,0.04306 l 1.626984,1.6269833 c 0.522444,0.522443 0.526819,1.320286 0.04306,1.804038 l -1.051159,1.051159 c -0.54537,0.54535 -1.68627,0.638625 -3.226849,0.07338 C 8.5590035,13.821286 6.732708,12.632314 5.063907,10.963486 3.3950992,9.2946987 2.204512,7.4667947 1.6392649,5.9262159 1.0740178,4.3856372 1.1688997,3.2447011 1.7142338,2.699364 L 2.7653932,1.6482047 C 3.0072842,1.4063137 3.3270865,1.286628 3.6522586,1.2925014 Z"></path>
		<path d="m 10.456881,2.7791181 a 0.61251166,0.61251166 0 0 0 -0.5758245,0.366869 0.61251166,0.61251166 0 0 0 0.3174215,0.8071117 c 0.386517,0.1684454 0.747791,0.4096475 1.065515,0.7273576 0.336707,0.3367557 0.586993,0.7231088 0.756069,1.1356987 a 0.61251166,0.61251166 0 0 0 0.799136,0.3349674 0.61251166,0.61251166 0 0 0 0.334967,-0.7991363 C 12.924864,4.7924303 12.582658,4.2669271 12.130123,3.8143267 11.703033,3.3872554 11.210657,3.0585577 10.686573,2.8301608 a 0.61251166,0.61251166 0 0 0 -0.229692,-0.051043 z"></path>
		<path d="M 10.417004,4.8454116e-4 A 0.61251166,0.61251166 0 0 0 9.8667005,0.40404042 0.61251166,0.61251166 0 0 0 10.23357,1.1888209 c 1.00786,0.3651014 1.952984,0.9496847 2.762682,1.759376 0.82998,0.8300172 1.423563,1.8029417 1.786493,2.8392468 a 0.61251166,0.61251166 0 0 0 0.78159,0.3748444 0.61251166,0.61251166 0 0 0 0.374845,-0.7799954 C 15.517114,4.1771318 14.823877,3.0436058 13.862382,2.0820671 12.924381,1.1440749 11.823672,0.46180182 10.651481,0.03717144 A 0.61251166,0.61251166 0 0 0 10.417004,4.8454116e-4 Z"></path>
	</symbol>
	<symbol id="tape-measure" viewBox="0 0 16 10.434782">
		<path
			d="M 7.8596346,10.434782 H 2.605513 c -0.7168174,0 -1.3682765,-0.292191 -1.84037388,-0.762921 C 0.29303999,9.20113 0,8.551565 0,7.836835 V 5.2173912 C 0,3.782313 0.58859129,2.4778782 1.5368348,1.5323739 2.4850956,0.5868835 3.7933217,0 5.2325738,0 6.671826,0 7.980052,0.5868835 8.9283129,1.5323739 9.8765563,2.4778782 10.465148,3.782313 10.465148,5.2173912 V 7.836835 c 0,0.71473 -0.293044,1.364295 -0.7651308,1.835026 -0.4721043,0.47073 -1.1235652,0.762921 -1.8403826,0.762921 z M 2.605513,9.857443 h 5.2541216 c 0.5569739,0 1.0635478,-0.227408 1.4309913,-0.593774 C 9.658052,8.897304 9.8861389,8.392191 9.8861389,7.836835 V 5.2173912 c 0,-1.2757043 -0.5236347,-2.4356869 -1.3672173,-3.2768173 C 7.675339,1.0994313 6.5119825,0.5773269 5.2325564,0.5773269 c -1.279426,0 -2.4427652,0.5221044 -3.2863477,1.363247 C 1.1026226,2.7817043 0.57899825,3.9416869 0.57899825,5.2173912 V 7.836835 c 0,0.555356 0.22807304,1.060469 0.59551125,1.426834 0.3674296,0.366366 0.8740122,0.593774 1.4309861,0.593774 z"
			fill="#f5320e"
			id="path2"
			style="display:inline;stroke-width:1" />
		<path
			d="M 9.5638259,9.857461 H 14.114869 V 8.235182 h -3.666591 c -0.06673,0.569809 -0.32833,1.082331 -0.7160173,1.468905 -0.053756,0.0536 -0.11,0.104765 -0.1684348,0.153356 z m 4.8405391,0.577321 H 7.9695998 V 9.857461 c 0.5267305,0 1.0058087,-0.215079 1.3533044,-0.561565 C 9.6703824,8.949409 9.8860868,8.471722 9.8860868,7.946522 V 7.657861 h 4.8077912 v 2.776904 h -0.289496 z"
			fill="#f5320e"
			id="path4"
			style="display:inline;stroke-width:1" />
		<path
			d="m 14.983513,6.8661042 h 0.147982 c 0.239148,0 0.456331,0.097339 0.613618,0.2541565 C 15.902365,7.277061 16,7.493635 16,7.732087 V 9.5688 c 0,0.238435 -0.09764,0.455008 -0.254887,0.611826 -0.157287,0.1568 -0.37447,0.254156 -0.613618,0.254156 h -1.016521 l 1.7e-5,-2.702695 c 0,-0.238435 0.09762,-0.455026 0.254904,-0.6118263 0.157253,-0.1568174 0.37447,-0.2541565 0.613618,-0.2541565 z m 0.147982,0.5773218 h -0.147982 c -0.0793,0 -0.151635,0.03257 -0.204244,0.08503 -0.05261,0.05245 -0.08527,0.124574 -0.08527,0.203635 v 2.125374 h 0.437495 c 0.07929,0 0.151618,-0.03257 0.204226,-0.08503 0.05261,-0.05245 0.08527,-0.124574 0.08527,-0.203635 V 7.732087 c 0,-0.07906 -0.03266,-0.151183 -0.08527,-0.203635 -0.05261,-0.05245 -0.124921,-0.08503 -0.204226,-0.08503 z"
			fill="#f5320e"
			id="path6"
			style="stroke-width:1" />
		<path
			d="m 11.334139,4.0242782 -0.358557,0.2141565 h -0.01012 C 10.802105,4.3119997 10.62334,4.3245217 10.458488,4.2833217 10.266017,4.2351999 10.091461,4.1136869 9.9813563,3.9304521 L 8.5867824,1.6092591 C 8.4768172,1.4262174 8.451739,1.2156852 8.4999477,1.0240226 8.5482085,0.8320922 8.6700694,0.6580574 8.8538607,0.5482783 L 9.1425563,0.3758296 C 9.4055302,0.2187635 9.7082955,0.1830417 9.9842085,0.2520087 10.260348,0.3210296 10.510608,0.4951183 10.668278,0.7575496 l 1.048661,1.7454417 c 0.15753,0.2621913 0.193356,0.5640869 0.124191,0.8392173 -0.06922,0.2753392 -0.243826,0.5248522 -0.507008,0.6820696 z M 10.818991,3.661113 11.037843,3.5303825 c 0.125444,-0.074922 0.208939,-0.1949739 0.242383,-0.3280173 0.03351,-0.133287 0.01666,-0.2786783 -0.05859,-0.4039653 L 10.172974,1.0529635 C 10.097826,0.9278904 9.9774259,0.8446296 9.8439824,0.8112852 9.7103302,0.7778696 9.5645215,0.7946678 9.438852,0.8697043 L 9.1501563,1.0421548 c -0.046035,0.027489 -0.076835,0.072066 -0.089304,0.1216678 -0.012522,0.049845 -0.00643,0.1038695 0.021252,0.1499948 l 1.3950607,2.3219564 c 0.0276,0.045478 0.07207,0.075878 0.121548,0.088243 0.04998,0.012504 0.104156,0.00643 0.150417,-0.021183 l 0.06984,-0.041722 z"
			fill="#f5320e"
			id="path8"
			style="stroke-width:1" />
		<path
			d="m 5.2325912,7.868556 c -0.7341913,0 -1.3989217,-0.296765 -1.8800869,-0.7765214 -0.4811652,-0.4797739 -0.7788,-1.1425738 -0.7788,-1.8746434 0,-0.7320696 0.2976348,-1.3948695 0.7788,-1.8746434 0.4811652,-0.4797739 1.1458782,-0.7765392 1.8800869,-0.7765392 0.7342087,0 1.3989217,0.2967653 1.8801043,0.7765392 0.4811652,0.4797739 0.7787826,1.1425565 0.7787826,1.8746434 0,0.7320696 -0.2976174,1.3948521 -0.7787826,1.8746434 C 6.6315303,7.571791 5.9667999,7.868556 5.2325912,7.868556 Z M 3.7618782,6.6838433 c 0.3763652,0.3752696 0.8963652,0.6073917 1.470713,0.6073917 0.5743652,0 1.0943478,-0.2321221 1.470713,-0.6073917 0.3763652,-0.3752695 0.6091652,-0.8937565 0.6091652,-1.4664521 0,-0.5726782 -0.2328,-1.0911652 -0.6091652,-1.4664348 C 6.326939,3.3756869 5.8069564,3.1435478 5.2325912,3.1435478 c -0.5743478,0 -1.0943478,0.2321391 -1.470713,0.6074086 C 3.3855304,4.126226 3.152713,4.644713 3.152713,5.2173912 c 0,0.5726956 0.2328174,1.0911826 0.6091652,1.4664521 z"
			fill="#f5320e"
			id="path10"
			style="stroke-width:1" />
		<path
			d="M 0,6.0125216 C 0,4.599826 0.6736852,3.3163652 1.6990539,2.3759652 2.7605565,1.4024574 4.202939,0.7951182 5.6636695,0.7951182 c 0.8842782,0 1.7203999,0.2227009 2.4547129,0.6147687 0.7611305,0.4063739 1.4111652,0.9947913 1.8903826,1.7057304 L 9.5292868,3.4358434 C 9.102452,2.8026086 8.5239303,2.2787478 7.8469738,1.9173217 7.1961564,1.5698261 6.452626,1.3724539 5.6636868,1.3724539 c -1.3146782,0 -2.6147999,0.5484156 -3.573339,1.4274939 C 1.1782765,3.6364347 0.57901564,4.7709738 0.57901564,6.0125216 H 9.0333042e-6 Z"
			fill="#f5320e"
			id="path12"
			style="stroke-width:1" />
		<path
			d="m 4.3358782,4.411026 c -0.1598957,0 -0.2895131,-0.1292348 -0.2895131,-0.2886609 0,-0.159426 0.1296174,-0.2886608 0.2895131,-0.2886608 h 1.817913 c 0.1598782,0 0.289513,0.1292348 0.289513,0.2886608 0,0.1594261 -0.1296348,0.2886609 -0.289513,0.2886609 z"
			fill="#f5320e"
			id="path14"
			style="stroke-width:1" />
		<path
			d="m 4.563113,5.4121042 c -0.1598783,0 -0.2895131,-0.1292347 -0.2895131,-0.2886608 0,-0.1594261 0.1296348,-0.2886609 0.2895131,-0.2886609 h 1.3633391 c 0.1598782,0 0.2894956,0.1292348 0.2894956,0.2886609 0,0.1594261 -0.1296174,0.2886608 -0.2894956,0.2886608 z"
			fill="#f5320e"
			id="path16"
			style="stroke-width:1" />
		<path
			d="m 4.8593043,6.4131825 c -0.1598783,0 -0.2894957,-0.1292348 -0.2894957,-0.2886609 0,-0.1594261 0.1296174,-0.2886608 0.2894957,-0.2886608 h 0.7709912 c 0.1598957,0 0.2895131,0.1292347 0.2895131,0.2886608 0,0.1594261 -0.1296174,0.2886609 -0.2895131,0.2886609 z"
			fill="#f5320e"
			id="path18"
			style="stroke-width:1" />
		<path
			d="m 2.8950782,10.111478 c 0,0.159426 -0.1296174,0.288661 -0.2894956,0.288661 -0.1598957,0 -0.2895131,-0.129235 -0.2895131,-0.288661 v -1.56313 c 0,-0.159426 0.1296174,-0.288679 0.2895131,-0.288679 0.1598782,0 0.2894956,0.129253 0.2894956,0.288679 z"
			fill="#f5320e"
			id="path20"
			style="stroke-width:1" />
		<path
			d="m 5.5221216,10.111478 c 0,0.159426 -0.1296174,0.288661 -0.289513,0.288661 -0.1598783,0 -0.2894957,-0.129235 -0.2894957,-0.288661 V 9.175356 c 0,-0.159426 0.1296174,-0.288661 0.2894957,-0.288661 0.1598956,0 0.289513,0.129235 0.289513,0.288661 z"
			fill="#f5320e"
			id="path22"
			style="stroke-width:1" />
		<path
			d="m 8.1491477,10.111478 c 0,0.159426 -0.1296174,0.288661 -0.2895131,0.288661 -0.1598782,0 -0.2894956,-0.129235 -0.2894956,-0.288661 v -1.56313 c 0,-0.159426 0.1296174,-0.288679 0.2894956,-0.288679 0.1598957,0 0.2895131,0.129253 0.2895131,0.288679 z"
			fill="#f5320e"
			id="path24"
			style="display:inline;stroke-width:1" />
		<path
			d="m 10.975722,7.946539 c 0,-0.159426 0.129617,-0.288661 0.289495,-0.288661 0.159878,0 0.289496,0.129235 0.289496,0.288661 v 1.140487 c 0,0.159426 -0.129618,0.288661 -0.289496,0.288661 -0.159878,0 -0.289495,-0.129235 -0.289495,-0.288661 z"
			fill="#f5320e"
			id="path26"
			style="display:inline;stroke-width:1" />
		<path
			d="m 12.000504,7.946539 c 0,-0.159426 0.129617,-0.288661 0.289513,-0.288661 0.159896,0 0.289513,0.129235 0.289513,0.288661 v 0.666957 c 0,0.159426 -0.129617,0.288678 -0.289513,0.288678 -0.159896,0 -0.289513,-0.129252 -0.289513,-0.288678 z"
			fill="#f5320e"
			id="path28"
			style="display:inline;stroke-width:1" />
		<path
			d="m 13.057739,7.946539 c 0,-0.159426 0.129617,-0.288661 0.289513,-0.288661 0.159878,0 0.289496,0.129235 0.289496,0.288661 v 1.140487 c 0,0.159426 -0.129618,0.288661 -0.289496,0.288661 -0.159896,0 -0.289513,-0.129235 -0.289513,-0.288661 z"
			fill="#f5320e"
			id="path30"
			style="display:inline;stroke-width:1" />
	</symbol>
</svg>