<svg xmlns="http://www.w3.org/2000/svg" width="147" height="39" viewBox="0 0 16 16" fill="#fff">
        <path
                d="M 14.927187,0.63202008 H 2.9688079 c -0.3700009,0 -0.7066285,0.15159774 -0.9508718,0.39583042 C 1.7737141,1.2720938 1.6221163,1.6086894 1.6221163,1.9787224 V 14.021301 c 0,0.370028 0.1515978,0.706642 0.3958198,0.950883 0.2442433,0.244214 0.5808602,0.395814 0.9508718,0.395814 H 14.927187 c 0.06517,0 0.124693,-0.02688 0.168027,-0.07021 0.04331,-0.04331 0.07021,-0.102827 0.07021,-0.168001 V 0.87025538 c 0,-0.0651735 -0.02691,-0.124683 -0.07021,-0.16800312 -0.04333,-0.0433281 -0.102854,-0.0702215 -0.168027,-0.0702215 z M 2.9688079,1.0542375e-5 H 14.927187 c 0.239654,0 0.457307,0.09782170762 0.614855,0.255386657625 0.157573,0.15756629 0.255387,0.37520954 0.255387,0.61484751 V 15.129784 c 0,0.239628 -0.09781,0.457281 -0.255387,0.614829 C 15.384494,15.902186 15.166841,16 14.927187,16 H 2.9688079 C 2.4243532,16 1.9295812,15.777466 1.5711029,15.419012 1.2126326,15.060531 0.99010665,14.565783 0.99010665,14.021301 V 1.9787117 c 0,-0.5444761 0.22253655,-1.0392268 0.58099625,-1.39771576 C 1.9295812,0.22252645 2.4243532,0 2.9688079,0 Z"
                fill="#f5320e"
                id="path2"
                style="stroke-width:1"/>
        <path
                d="m 2.7169139,3.1216721 c 0,0.1745071 -0.1414883,0.3160275 -0.3160141,0.3160275 -0.1745178,0 -0.3160062,-0.1414937 -0.3160062,-0.3160275 0,-0.1050136 -0.020261,-0.4625292 -0.2287366,-0.6950392 C 1.7481327,2.3061553 1.5767242,2.2165977 1.3061048,2.2165977 c -0.1996192,0 -0.35107025,0.065131 -0.45730253,0.1643018 -0.12923768,0.1206136 -0.20012587,0.2943447 -0.21435791,0.4663719 -0.001613,0.0196 -0.002435,0.04048 -0.002435,0.062533 0,0.1575471 0.0492001,0.3076808 0.14602172,0.4202144 0.0954589,0.1109603 0.24362202,0.1890139 0.44464122,0.2056806 0.025544,0.00211 0.053355,0.00317 0.083432,0.00317 0.1745045,0 0.3160035,0.1414937 0.3160035,0.3160275 0,0.1745072 -0.1414883,0.3160009 -0.3160035,0.3160009 -0.044891,0 -0.090032,-0.00192 -0.1352803,-0.00565 C 0.79103945,4.1338082 0.498788,3.9719944 0.29909413,3.7398604 0.1007736,3.5093531 0,3.213219 0,2.9098315 0,2.8731114 0.0016446,2.8349247 0.00491271,2.7954312 0.03107875,2.4792491 0.16791752,2.1538402 0.41923579,1.9192422 0.63564703,1.7172417 0.93114649,1.5845987 1.3061155,1.5845987 c 0.4791239,0 0.8018981,0.1800724 1.0191201,0.4223558 0.3569849,0.3981397 0.3916783,0.9529038 0.3916783,1.1147443 z"
                fill="#f5320e"
                id="path4"
                style="stroke-width:1"/>
        <path
                d="m 2.7169139,7.065576 c 0,0.1745071 -0.1414883,0.3160008 -0.3160141,0.3160008 -0.1745178,0 -0.3160062,-0.141467 -0.3160062,-0.3160008 0,-0.1050136 -0.020261,-0.4625346 -0.2287366,-0.6950419 C 1.7481327,6.2500538 1.5767242,6.1605069 1.3061048,6.1605069 c -0.1996192,0 -0.35107025,0.06512 -0.45730253,0.1642938 -0.12923768,0.1206136 -0.20012587,0.2943474 -0.21435791,0.4663746 -0.001613,0.0196 -0.002435,0.04048 -0.002435,0.062534 0,0.157547 0.0492001,0.3076808 0.14602172,0.4202144 0.0954589,0.1109603 0.24362202,0.1890139 0.44464122,0.2056539 0.025544,0.00213 0.053355,0.0032 0.083432,0.0032 0.1745045,0 0.3160035,0.1414937 0.3160035,0.3160275 0,0.1745072 -0.1414883,0.3160009 -0.3160035,0.3160009 -0.044891,0 -0.090032,-0.00192 -0.1352803,-0.00565 C 0.79103945,8.077712 0.498788,7.9158716 0.29909413,7.6837643 0.1007736,7.453257 0,7.1571229 0,6.8537354 0,6.8169887 0.00165514,6.7788019 0.00491271,6.7393351 0.03107875,6.4231476 0.16791752,6.0977334 0.41923579,5.8631461 0.63564703,5.6611456 0.93114649,5.5285052 1.3061155,5.5285052 c 0.4791239,0 0.8018981,0.1800538 1.0191201,0.4223478 0.3569849,0.3981344 0.3916783,0.9529092 0.3916783,1.1147497 z"
                fill="#f5320e"
                id="path6"
                style="stroke-width:1"/>
        <path
                d="m 2.7169139,11.00948 c 0,0.174507 -0.1414883,0.316001 -0.3160141,0.316001 -0.1745178,0 -0.3160062,-0.141467 -0.3160062,-0.316001 0,-0.105014 -0.020261,-0.462535 -0.2287366,-0.695042 -0.1080243,-0.12048 -0.2794328,-0.210054 -0.5500522,-0.210054 -0.1996298,0 -0.35107025,0.06515 -0.4573132,0.164321 -0.12922701,0.120587 -0.2001152,0.29432 -0.21434724,0.466347 -0.001613,0.0196 -0.002435,0.04051 -0.002435,0.06256 0,0.15752 0.0492001,0.30768 0.14602172,0.420214 0.0954589,0.11096 0.24362202,0.189014 0.44464122,0.205654 0.025544,0.0021 0.053355,0.0032 0.083432,0.0032 0.1745045,0 0.3160035,0.141494 0.3160035,0.316001 0,0.174507 -0.1414883,0.316027 -0.3160035,0.316027 -0.044891,0 -0.090032,-0.0019 -0.1352803,-0.0057 C 0.79103945,12.021589 0.498788,11.859775 0.29909413,11.627668 0.1007736,11.397161 0,11.101 0,10.797639 0,10.760893 0.00165514,10.722706 0.00491271,10.683239 0.03107875,10.367051 0.16790685,10.041637 0.41923579,9.80705 0.63564703,9.6050495 0.93114649,9.4724091 1.3061155,9.4724091 c 0.4791239,0 0.8018981,0.1800538 1.0191201,0.4223478 0.3569849,0.3981341 0.3916783,0.9528821 0.3916783,1.1147231 z"
                fill="#f5320e"
                id="path8"
                style="stroke-width:1"/>
        <path
                d="M 15.165321,13.323886 H 2.7931808 c -0.2132912,0 -0.4093798,0.06309 -0.5688949,0.175654 -0.1595257,0.11256 -0.2845154,0.275654 -0.3556329,0.475574 -0.071635,0.201388 -0.077885,0.407788 -0.025144,0.596402 0.052555,0.187894 0.1644405,0.360321 0.3292782,0.494588 0.1172004,0.09547 0.2520994,0.172054 0.3996784,0.224694 0.1400751,0.04997 0.2911155,0.0772 0.4486092,0.0772 H 15.165321 V 13.323859 Z M 2.7931808,12.691858 H 15.797322 V 16 H 3.0210747 C 2.7899808,16 2.5674389,15.95971 2.3601556,15.885786 2.1472217,15.809813 1.9497545,15.697012 1.7753114,15.554932 1.506812,15.336238 1.3235555,15.051784 1.23619,14.739383 1.1490164,14.427756 1.1580084,14.090475 1.2736781,13.765274 1.3898864,13.438606 1.5964629,13.170472 1.8613783,12.983565 2.126275,12.796631 2.4475612,12.691858 2.7931808,12.691858 Z"
                fill="#f5320e"
                id="path10"
                style="stroke-width:1"/>
        <path
                d="m 15.481401,14.029915 c 0.174508,0 0.316001,0.141493 0.316001,0.316 0,0.174534 -0.141467,0.316028 -0.316001,0.316028 H 4.4121185 c -0.1745072,0 -0.3160009,-0.141494 -0.3160009,-0.316028 0,-0.174507 0.1414671,-0.316 0.3160009,-0.316 z"
                fill="#f5320e"
                id="path12"
                style="stroke-width:1"/>
        <path
                d="m 2.9303278,14.661943 c -0.1745071,0 -0.3159981,-0.141494 -0.3159981,-0.316028 0,-0.174507 0.141491,-0.316 0.3159981,-0.316 h 0.012427 c 0.1745072,0 0.3160276,0.141493 0.3160276,0.316 0,0.174534 -0.1414938,0.316028 -0.3160276,0.316028 z"
                fill="#f5320e"
                id="path14"
                style="stroke-width:1"/>
        <path
                d="M 11.592218,11.297107 H 5.0666802 V 1.969301 h 6.8415388 v 9.327806 z M 5.6986819,10.665106 H 11.276217 V 2.6013001 H 5.6986819 Z"
                fill="#f5320e"
                id="path16"
                style="stroke-width:1"/>
        <path
                d="M 7.7684741,2.2852939 V 10.981106 H 7.1364724 V 2.2852939 Z"
                fill="#f5320e"
                id="path18"
                style="stroke-width:1"/>
        <path
                d="M 9.8382663,2.2852939 V 10.981106 H 9.2062646 V 2.2852939 Z"
                fill="#f5320e"
                id="path20"
                style="stroke-width:1"/>
        <path
                d="M 5.613615,2.0618879 7.6758339,4.1240748 V 4.5709293 L 5.6059617,6.6407749 5.1591338,6.193947 7.0055654,4.3475154 5.1667605,2.5087211 Z"
                fill="#f5320e"
                id="path22"
                style="stroke-width:1"/>
        <path
                d="M 7.2213527,11.20452 5.1591338,9.1423282 V 8.6954737 L 7.2289793,6.6256281 7.6758339,7.0724827 5.8294023,8.9189143 7.6681805,10.757693 Z"
                fill="#f5320e"
                id="path24"
                style="stroke-width:1"/>
        <path
                d="M 9.7379994,2.5087211 7.8991945,4.3475154 9.7456261,6.193947 9.2987982,6.6407749 7.228926,4.5709293 V 4.1240748 L 9.2911449,2.0618879 Z"
                fill="#f5320e"
                id="path26"
                style="stroke-width:1"/>
        <path
                d="M 7.2368194,10.757693 9.0756243,8.9189143 7.2291927,7.0724827 7.6760205,6.6256281 9.7458927,8.6954737 V 9.1423282 L 7.6836739,11.20452 Z"
                fill="#f5320e"
                id="path28"
                style="stroke-width:1"/>
        <path
                d="M 9.7534661,2.0618879 11.815685,4.1240748 V 4.5709293 L 9.7458127,6.6407749 9.2989849,6.193947 11.145416,4.3475154 9.3066382,2.5087211 Z"
                fill="#f5320e"
                id="path30"
                style="stroke-width:1"/>
        <path
                d="M 11.361204,11.20452 9.2989849,9.1423282 V 8.6954737 L 11.36883,6.6256281 11.815685,7.0724827 9.9692533,8.9189143 11.808058,10.757693 Z"
                fill="#f5320e"
                id="path32"
                style="stroke-width:1"/>
</svg>
